<svg width="40" height="40" viewBox="0 0 40 40" fill="none" xmlns="http://www.w3.org/2000/svg">
<circle cx="20" cy="20" r="20" fill="#069DF7"/>
<path d="M22.85 12.4917C22.7532 12.3947 22.6383 12.3177 22.5117 12.2652C22.3852 12.2127 22.2495 12.1856 22.1125 12.1856C21.9755 12.1856 21.8398 12.2127 21.7133 12.2652C21.5867 12.3177 21.4718 12.3947 21.375 12.4917L14.45 19.4167C14.3727 19.4938 14.3115 19.5853 14.2696 19.6861C14.2278 19.787 14.2063 19.895 14.2063 20.0042C14.2063 20.1133 14.2278 20.2214 14.2696 20.3222C14.3115 20.423 14.3727 20.5146 14.45 20.5917L21.375 27.5167C21.7833 27.925 22.4417 27.925 22.85 27.5167C23.2583 27.1083 23.2583 26.45 22.85 26.0417L16.8167 20L22.8583 13.9583C23.2583 13.5583 23.2583 12.8917 22.85 12.4917Z" fill="white"/>
</svg>
